<svg aria-hidden="true" focusable="false" data-prefix="fab" data-icon="instagram" class="svg-inline--fa fa-instagram fa-w-14" role="img" xmlns="http://www.w3.org/2000/svg" viewBox="0 0 448 512">
  <path fill="currentColor" d="M224.1 141c-63.6 0-114.9 51.3-114.9 114.9 
    0 63.6 51.3 114.9 114.9 114.9 
    63.6 0 114.9-51.3 114.9-114.9 
    0-63.6-51.3-114.9-114.9-114.9zm0 
    190.7c-42 0-75.8-33.8-75.8-75.8 
    0-42 33.8-75.8 75.8-75.8 
    42 0 75.8 33.8 75.8 75.8 
    0 42-33.8 75.8-75.8 75.8zm146.4-194.3
    c0 14.9-12.1 27-27 27-14.9 0-27-12.1-27-27
    0-14.9 12.1-27 27-27 14.9 0 27 12.1 27 27zm76.1 
    27.2c-.9-19.6-5.2-37-19.1-50.9
    -13.9-13.9-31.3-18.2-50.9-19.1
    -20.1-1.1-80.2-1.1-100.3 0
    -19.6.9-37 5.2-50.9 19.1
    -13.9 13.9-18.2 31.3-19.1 50.9
    -1.1 20.1-1.1 80.2 0 100.3
    .9 19.6 5.2 37 19.1 50.9
    13.9 13.9 31.3 18.2 50.9 19.1
    20.1 1.1 80.2 1.1 100.3 0
    19.6-.9 37-5.2 50.9-19.1
    13.9-13.9 18.2-31.3 19.1-50.9
    1.1-20.1 1.1-80.2 0-100.3zm-48.5 
    125.7c-7.8 19.6-22.9 34.7-42.5 42.5
    -29.4 11.7-99.2 9-132.2 0
    -19.6-7.8-34.7-22.9-42.5-42.5
    -11.7-29.4-9-99.2 0-132.2
    7.8-19.6 22.9-34.7 42.5-42.5
    29.4-11.7 99.2-9 132.2 0
    19.6 7.8 34.7 22.9 42.5 42.5
    11.7 29.4 9 99.2 0 132.2z"></path>
</svg>
