<svg aria-hidden="true" focusable="false" data-prefix="fab" data-icon="linkedin" class="svg-inline--fa fa-linkedin fa-w-14" role="img" xmlns="http://www.w3.org/2000/svg" viewBox="0 0 448 512">
  <path fill="currentColor" d="M100.28 448H7.4V148.9h92.88zm-46.44-340C24.06 108 0 83.94 0 54.28 0 24.62 24.06 0 53.84 0 83.62 0 107.68 24.62 107.68 54.28c0 29.66-24.06 54.72-53.84 54.72zM448 448h-92.68V302.4c0-34.7-.7-79.3-48.3-79.3-48.3 0-55.7 37.7-55.7 76.6V448h-92.68V148.9h88.98v40.8h1.3c12.4-23.4 42.6-48.3 87.6-48.3 93.4 0 110.5 61.5 110.5 141.3V448z"></path>
</svg>
